<?xml version="1.0" standalone="no"?>
<!DOCTYPE svg PUBLIC "-//W3C//DTD SVG 20010904//EN"
 "http://www.w3.org/TR/2001/REC-SVG-20010904/DTD/svg10.dtd">
<svg version="1.0" xmlns="http://www.w3.org/2000/svg"
 width="260.000000pt" height="260.000000pt" viewBox="0 0 260.000000 260.000000"
 preserveAspectRatio="xMidYMid meet">
<metadata>
Created by potrace 1.14, written by Peter Selinger 2001-2017
</metadata>
<g transform="translate(0.000000,260.000000) scale(0.100000,-0.100000)"
fill="#000000" stroke="none">
<path d="M704 2330 l-29 -5 -2 -1046 -1 -1046 86 1 87 1 5 665 5 666 285 -1
285 0 2 -165 c1 -91 2 -175 2 -187 1 -22 5 -23 86 -23 l85 0 0 569 0 569 -76
4 c-42 2 -80 0 -85 -3 -5 -3 -10 -137 -10 -297 l-2 -292 -116 0 c-343 -1 -399
-1 -428 -1 l-33 1 0 294 0 294 -59 4 c-32 1 -72 1 -87 -2z"/>
<path d="M282 1283 l3 -1048 95 0 95 0 0 1048 0 1047 -98 0 -97 0 2 -1047z"/>
<path d="M1050 2328 c-4 -22 -1 -380 3 -384 7 -7 166 -9 173 -2 2 3 6 91 7
197 l2 191 -92 0 c-51 0 -93 -1 -93 -2z"/>
<path d="M1799 2323 c0 -4 -1 -305 -2 -668 l-2 -660 -282 -1 -282 -2 0 162 c0
88 0 173 0 188 l-1 26 -85 0 c-47 -1 -88 -5 -92 -11 -4 -7 -7 -784 -4 -1074
l1 -53 85 2 c47 0 88 5 92 11 3 5 5 133 5 283 l-1 274 37 1 c20 0 147 1 282 2
l245 0 2 -174 c1 -96 2 -180 2 -186 1 -9 26 -13 89 -13 l87 0 0 948 0 947 -88
3 c-48 1 -87 -1 -88 -5z"/>
<path d="M2172 1281 l0 -1050 96 2 97 2 3 1048 2 1047 -99 0 -100 0 1 -1049z"/>
<path d="M1430 591 c-1 -38 -1 -327 -1 -342 1 -14 14 -16 84 -15 l82 1 3 186
2 186 -85 0 c-71 0 -85 -3 -85 -16z"/>
</g>
</svg>
