<?xml version="1.0" encoding="utf-8"?>
<!-- Generator: Adobe Illustrator 23.0.1, SVG Export Plug-In . SVG Version: 6.00 Build 0)  -->
<svg version="1.1" id="Layer_1" xmlns="http://www.w3.org/2000/svg" xmlns:xlink="http://www.w3.org/1999/xlink" x="0px" y="0px"
	 width="292.2px" height="285.2px" viewBox="0 0 292.2 285.2" enable-background="new 0 0 292.2 285.2" xml:space="preserve">
<g>
	<defs>
		<rect id="SVGID_1_" x="393.5" y="-1059.6" width="1036" height="554"/>
	</defs>
	<clipPath id="SVGID_2_">
		<use xlink:href="#SVGID_1_"  overflow="visible"/>
	</clipPath>
	
		<radialGradient id="SVGID_3_" cx="393.5294" cy="-505.5882" r="1" gradientTransform="matrix(478.5693 0 0 -304.3358 -187419.5625 -154651.2031)" gradientUnits="userSpaceOnUse">
		<stop  offset="0" style="stop-color:#F2F2F2"/>
		<stop  offset="1" style="stop-color:#B3B3B3"/>
	</radialGradient>
	<rect x="393.5" y="-1059.6" clip-path="url(#SVGID_2_)" fill="url(#SVGID_3_)" width="1036" height="554"/>
</g>
<text transform="matrix(1 0 0 1 586.587 -640.5619)"><tspan x="0" y="0" fill="#111111" font-family="'Exo2-Bold'" font-size="61.5542px">И</tspan><tspan x="43.9" y="0" fill="#111111" font-family="'Exo2-Bold'" font-size="61.5542px">А</tspan><tspan x="83.7" y="0" fill="#111111" font-family="'Exo2-Bold'" font-size="61.5542px">С НЕДВИЖИМОСТЬ</tspan></text>
<g>
	<path fill="#111111" d="M392-304.3v70.9h-15v-42.1c0-1.6,0.1-3.2,0.2-4.8c0.1-1.6,0.3-3.2,0.6-4.8h-0.6c-0.5,1.6-1.2,3.2-1.8,4.8
		c-0.7,1.5-1.4,3.1-2.2,4.6l-24.4,42.3h-15.3v-70.9h15v41.3c0,1.6-0.1,3.2-0.3,4.9c-0.2,1.7-0.4,3.4-0.6,5.1h0.5
		c0.6-1.6,1.3-3.3,2-4.8c0.7-1.6,1.5-3.1,2.3-4.5l24.1-41.9H392z"/>
	<path fill="#111111" d="M440.4-304.3c1.3,0,2.4,0.4,3.4,1.1c1,0.8,1.7,1.7,2,3l20.6,66.8h-16l-14.5-52.1c-0.3-1.2-0.5-2.3-0.8-3.5
		c-0.3-1.2-0.5-2.3-0.7-3.4h-2.8c-0.2,1.1-0.4,2.2-0.7,3.4c-0.2,1.2-0.5,2.4-0.9,3.5l-14.5,52.1h-16.1l20.7-66.8c0.3-1.2,1-2.2,2-3
		c1-0.8,2.1-1.1,3.4-1.1H440.4z M451.3-263.9v11.8h-36.8v-11.8H451.3z"/>
	<path fill="#111111" d="M500.6-305.5c3.4,0,6.2,0.1,8.6,0.3c2.4,0.2,4.5,0.4,6.5,0.8c2,0.3,4,0.8,6.2,1.4l-1.2,11.5
		c-2.3-0.1-4.3-0.2-6.2-0.3c-1.9-0.1-3.9-0.1-6.1-0.2c-2.2,0-4.7-0.1-7.8-0.1c-3.5,0-6.2,0.7-8.2,2.1c-2,1.4-3.3,3.8-4.2,7.1
		c-0.8,3.4-1.2,8.1-1.2,14c0,6,0.4,10.6,1.2,14c0.8,3.4,2.2,5.8,4.2,7.1c2,1.4,4.7,2.1,8.2,2.1c4.7,0,8.7-0.1,11.9-0.2
		c3.2-0.1,6.4-0.4,9.6-0.7l1.3,11.5c-3.3,1-6.6,1.8-10.1,2.2c-3.4,0.4-7.7,0.7-12.7,0.7c-7.3,0-13.2-1.2-17.6-3.5
		c-4.4-2.4-7.6-6.2-9.6-11.6c-2-5.3-2.9-12.5-2.9-21.6c0-9,1-16.2,2.9-21.6c2-5.3,5.1-9.2,9.6-11.6
		C487.4-304.3,493.3-305.5,500.6-305.5z"/>
	<path fill="#111111" d="M571.5-304.3v70.9h-15.7v-70.9H571.5z M597.8-277v11.8h-27.1V-277H597.8z M612.4-304.3v70.9h-15.7v-70.9
		H612.4z"/>
	<path fill="#111111" d="M641.6-304.6c3.8,0,7.6,0,11.5,0.1c3.9,0,7.8,0.1,11.6,0.3c3.8,0.1,7.3,0.4,10.6,0.7l-0.7,11.4h-27.2
		c-1.7,0-3,0.4-3.9,1.3c-0.9,0.9-1.3,2.2-1.3,3.9v36.2c0,1.7,0.4,3,1.3,3.9c0.9,0.9,2.1,1.3,3.9,1.3h27.2l0.7,11.4
		c-3.3,0.3-6.8,0.5-10.6,0.7c-3.8,0.2-7.7,0.3-11.6,0.3c-3.9,0-7.7,0.1-11.5,0.1c-4.5,0-8.2-1.3-10.9-4c-2.8-2.6-4.2-6.1-4.2-10.3
		v-43c0-4.3,1.4-7.8,4.2-10.4C633.4-303.3,637-304.6,641.6-304.6z M628.2-275.8h42.4v11.1h-42.4V-275.8z"/>
	<path fill="#111111" d="M752.8-244.3v11h-71.9v-11H752.8z M693.5-234.1l-1.2,16.2h-11.3v-16.2H693.5z M743.6-304.3v70.9h-15.7
		v-59.9h-9.4c-2,0-3.5,0.5-4.4,1.4c-1,1-1.5,2.5-1.6,4.6c-0.4,5.1-0.9,9.8-1.4,14c-0.5,4.2-1.2,8-2,11.6c-0.8,3.5-1.7,6.9-2.9,10
		c-1.1,3.1-2.5,6.2-4.1,9.1c-1.6,3-3.4,6-5.5,9.2h-13.3c3.3-6,5.9-12,7.8-18.2c1.9-6.2,3.4-12.5,4.4-18.9c1-6.4,1.8-12.8,2.3-19.3
		c0.3-4.3,1.9-7.8,4.8-10.5c2.8-2.7,6.6-4,11.3-4H743.6z M752.8-234.1v16.2h-11.2l-1.2-16.2H752.8z"/>
	<path fill="#111111" d="M789.3-305.1c6.2,0,11.1,0.5,14.7,1.6c3.7,1.1,6.3,2.9,8,5.6c1.6,2.7,2.5,6.4,2.5,11.3
		c0,5.1-1,8.9-2.9,11.6c-2,2.6-5.2,4.2-9.6,4.6v0.6c5.5,0.5,9.3,2.3,11.5,5.5c2.2,3.2,3.3,7.6,3.3,13.3c0,4.9-0.8,8.6-2.5,11.3
		c-1.7,2.7-4.3,4.5-7.8,5.6c-3.5,1.1-8.1,1.6-13.8,1.6c-4.6,0-8.6,0-12-0.1c-3.4,0-6.5-0.1-9.4-0.3c-2.9-0.1-5.8-0.3-8.8-0.5
		l1.5-10.9c1.6,0.1,4.8,0.1,9.5,0.2c4.7,0.1,10.2,0.1,16.4,0.1c2.9,0,5.1-0.3,6.8-0.8c1.6-0.5,2.8-1.6,3.4-3c0.6-1.5,1-3.6,1-6.3
		c0-2.9-0.3-5.2-1-6.7c-0.7-1.5-1.9-2.6-3.5-3.2c-1.7-0.6-4-1-6.9-1h-25.7v-10h25.5c2.5-0.1,4.5-0.3,6-0.8c1.5-0.5,2.5-1.4,3.1-2.8
		c0.6-1.4,0.9-3.3,0.9-5.8c0-2.5-0.3-4.5-1-5.8c-0.7-1.3-1.8-2.2-3.3-2.7c-1.6-0.5-3.8-0.7-6.6-0.7c-3.8,0-7.2,0-10.2,0
		c-2.9,0-5.6,0-7.9,0.1c-2.3,0-4.5,0.1-6.5,0.3l-1.5-10.9c2.7-0.3,5.4-0.5,8-0.6c2.6-0.1,5.4-0.2,8.4-0.2
		C781.8-305.1,785.3-305.1,789.3-305.1z M777.8-304.3v70.9h-15.4v-70.9H777.8z"/>
	<path fill="#111111" d="M886.9-304.3v70.9h-15v-42.1c0-1.6,0.1-3.2,0.2-4.8c0.1-1.6,0.3-3.2,0.6-4.8h-0.6c-0.5,1.6-1.2,3.2-1.8,4.8
		c-0.7,1.5-1.4,3.1-2.2,4.6l-24.4,42.3h-15.3v-70.9h15v41.3c0,1.6-0.1,3.2-0.3,4.9c-0.2,1.7-0.4,3.4-0.6,5.1h0.5
		c0.6-1.6,1.3-3.3,2-4.8c0.7-1.6,1.5-3.1,2.3-4.5l24.1-41.9H886.9z"/>
	<path fill="#111111" d="M914.2-304.3c1.6,5,3,9.3,4.2,12.9c1.2,3.6,2.4,6.5,3.5,8.8c1.2,2.3,2.5,4,4,5.1c1.5,1.1,3.2,1.7,5.3,1.7
		v10.9c-2.2,0-4,0.5-5.5,1.5c-1.5,1-2.8,2.7-4,5.1c-1.2,2.4-2.5,5.6-3.9,9.6c-1.4,4-3,9.1-5,15.2h-16.4c1.6-5.3,3.1-10,4.3-13.9
		c1.2-3.9,2.4-7.3,3.6-10.1c1.2-2.8,2.5-5,4-6.8c1.4-1.7,3.1-3.1,5-4c1.9-0.9,4.3-1.6,7.1-1.9v-0.6c-2.7-0.3-4.9-1-6.8-1.9
		s-3.4-2.2-4.7-4c-1.3-1.7-2.5-3.9-3.5-6.4c-1.1-2.6-2.1-5.6-3.2-9.1c-1.1-3.5-2.4-7.6-3.8-12.2H914.2z M938.6-275.7v10.9h-10.5
		v-10.9H938.6z M950.1-304.3v20c0,2.3-0.2,4.6-0.5,6.9c-0.3,2.3-0.9,4.5-1.7,6.7c0.6,2.1,1.1,4.3,1.6,6.5c0.4,2.2,0.7,4.3,0.7,6.2
		v24.5h-15v-24.5c0-1.9,0.2-4,0.7-6.2c0.5-2.2,1-4.4,1.5-6.5c-0.8-2.2-1.3-4.4-1.7-6.7c-0.4-2.3-0.6-4.6-0.6-6.9v-20H950.1z
		 M957-275.7v10.9h-10.3v-10.9H957z M986.8-304.3c-1.4,4.7-2.7,8.7-3.8,12.2c-1.1,3.5-2.2,6.5-3.2,9.1c-1.1,2.6-2.3,4.7-3.6,6.4
		c-1.3,1.7-2.9,3-4.8,4s-4.1,1.6-6.8,1.9v0.6c2.8,0.3,5.2,1,7.1,1.9s3.6,2.3,5.1,4c1.4,1.7,2.8,4,4,6.8c1.2,2.8,2.4,6.1,3.6,10.1
		c1.2,3.9,2.7,8.6,4.3,13.9h-16.4c-2-6.1-3.7-11.2-5-15.2c-1.4-4-2.7-7.2-3.9-9.6c-1.2-2.4-2.5-4.1-4-5.1c-1.5-1-3.3-1.5-5.5-1.5
		l-0.1-10.9c2.1,0,3.9-0.6,5.3-1.7c1.4-1.1,2.7-2.8,3.9-5.1c1.2-2.3,2.4-5.2,3.6-8.8c1.2-3.6,2.6-7.9,4.2-12.9H986.8z"/>
	<path fill="#111111" d="M1056.6-304.3v70.9h-15v-42.1c0-1.6,0.1-3.2,0.2-4.8c0.1-1.6,0.3-3.2,0.6-4.8h-0.6
		c-0.5,1.6-1.2,3.2-1.8,4.8c-0.7,1.5-1.4,3.1-2.2,4.6l-24.4,42.3h-15.3v-70.9h15v41.3c0,1.6-0.1,3.2-0.3,4.9
		c-0.2,1.7-0.4,3.4-0.6,5.1h0.5c0.6-1.6,1.3-3.3,2-4.8c0.7-1.6,1.5-3.1,2.3-4.5l24.1-41.9H1056.6z"/>
	<path fill="#111111" d="M1143.9-304.3c3.7,0,5.6,1.9,5.8,5.8l2.7,65.1h-14.5l-2.4-58.8h-1.8l-11.4,44.2c-0.6,3.3-2.7,4.9-6.2,4.9
		h-9.9c-3.5,0-5.6-1.6-6.4-4.9l-11.4-44.2h-1.7l-2.2,58.8H1070l2.7-65.1c0.1-3.8,2.1-5.8,5.9-5.8h14.7c3.4,0,5.4,1.7,6.2,5l9.1,35.7
		c0.4,1.6,0.8,3.3,1,5c0.3,1.7,0.6,3.4,0.9,5.1h1.3c0.3-1.7,0.7-3.4,1-5.1c0.3-1.7,0.6-3.4,1-5.1l9-35.6c0.7-3.4,2.7-5,6.2-5H1143.9
		z"/>
	<path fill="#111111" d="M1193.8-305.7c5.6,0,10.4,0.6,14.3,1.8c3.9,1.2,7,3.2,9.4,6c2.4,2.8,4.1,6.5,5.2,11.3
		c1.1,4.8,1.6,10.7,1.6,17.8c0,7.1-0.5,13.1-1.6,17.8c-1.1,4.8-2.8,8.5-5.2,11.3c-2.4,2.8-5.5,4.8-9.4,6c-3.9,1.2-8.7,1.8-14.3,1.8
		c-5.6,0-10.4-0.6-14.3-1.8c-3.9-1.2-7.1-3.2-9.5-6c-2.4-2.8-4.1-6.5-5.2-11.3c-1.1-4.8-1.6-10.7-1.6-17.8c0-7.1,0.5-13.1,1.6-17.8
		c1.1-4.8,2.8-8.5,5.2-11.3c2.4-2.8,5.5-4.8,9.5-6C1183.4-305.1,1188.2-305.7,1193.8-305.7z M1193.8-293.3c-3.6,0-6.5,0.7-8.5,2.2
		c-2,1.4-3.5,3.9-4.3,7.4c-0.9,3.5-1.3,8.5-1.3,14.8c0,6.3,0.4,11.2,1.3,14.8c0.9,3.6,2.3,6.1,4.3,7.5c2,1.4,4.8,2.2,8.5,2.2
		c3.6,0,6.4-0.7,8.4-2.2c2-1.4,3.5-3.9,4.3-7.5c0.9-3.6,1.3-8.5,1.3-14.8c0-6.4-0.4-11.3-1.3-14.8c-0.9-3.5-2.3-6-4.3-7.4
		C1200.1-292.5,1197.3-293.3,1193.8-293.3z"/>
	<path fill="#111111" d="M1264-305.5c3.4,0,6.2,0.1,8.6,0.3c2.4,0.2,4.5,0.4,6.5,0.8c2,0.3,4,0.8,6.2,1.4l-1.2,11.5
		c-2.3-0.1-4.3-0.2-6.2-0.3c-1.9-0.1-3.9-0.1-6.1-0.2c-2.2,0-4.7-0.1-7.8-0.1c-3.5,0-6.2,0.7-8.2,2.1c-2,1.4-3.3,3.8-4.2,7.1
		c-0.8,3.4-1.2,8.1-1.2,14c0,6,0.4,10.6,1.2,14c0.8,3.4,2.2,5.8,4.2,7.1c2,1.4,4.7,2.1,8.2,2.1c4.7,0,8.7-0.1,11.9-0.2
		c3.2-0.1,6.4-0.4,9.6-0.7l1.3,11.5c-3.3,1-6.6,1.8-10.1,2.2c-3.4,0.4-7.7,0.7-12.7,0.7c-7.3,0-13.2-1.2-17.6-3.5
		c-4.4-2.4-7.6-6.2-9.6-11.6c-2-5.3-2.9-12.5-2.9-21.6c0-9,1-16.2,2.9-21.6c2-5.3,5.1-9.2,9.6-11.6
		C1250.7-304.3,1256.6-305.5,1264-305.5z"/>
	<path fill="#111111" d="M1349.7-304.3v12.3h-58.4v-12.3H1349.7z M1328.3-304.3v70.9h-15.7v-70.9H1328.3z"/>
	<path fill="#111111" d="M1374.5-304.3v70.9h-15.7v-70.9H1374.5z M1385.1-277.8c6.5,0,11.7,0.7,15.5,2.1c3.8,1.4,6.5,3.8,8.1,7
		c1.6,3.3,2.4,7.8,2.4,13.6c0,5.9-0.8,10.5-2.4,13.8c-1.6,3.3-4.1,5.6-7.6,6.9c-3.4,1.3-7.9,2-13.4,2c-4.3,0-8.1,0-11.3-0.1
		c-3.2,0-6.2-0.1-8.9-0.3c-2.7-0.1-5.5-0.3-8.4-0.5l1.4-11.2c1.6,0.1,4.6,0.1,9,0.2c4.3,0.1,9.5,0.1,15.5,0.1c2.7,0,4.8-0.3,6.3-0.9
		c1.5-0.6,2.5-1.7,3.1-3.4c0.6-1.7,0.9-4,0.9-7c0-3-0.3-5.4-0.8-7c-0.5-1.7-1.6-2.9-3-3.6c-1.5-0.7-3.6-1.1-6.4-1.1h-24.6v-10.6
		H1385.1z"/>
</g>
<polygon fill="#1C75BC" points="955.5,-920.6 955.5,-796.9 902.8,-796.9 902.8,-831.7 886,-831.7 886,-727.1 902.8,-727.1 
	902.8,-779.8 955.5,-779.8 955.5,-745.2 971.8,-745.2 971.8,-920.6 "/>
<g>
	<defs>
		<rect id="SVGID_4_" x="886" y="-920.6" width="16.8" height="36.2"/>
	</defs>
	<clipPath id="SVGID_5_">
		<use xlink:href="#SVGID_4_"  overflow="visible"/>
	</clipPath>
	
		<linearGradient id="SVGID_6_" gradientUnits="userSpaceOnUse" x1="393.5294" y1="-505.5882" x2="394.5294" y2="-505.5882" gradientTransform="matrix(0 210.9818 210.9818 0 107564.2969 -83959.5625)">
		<stop  offset="0" style="stop-color:#898B8D"/>
		<stop  offset="1" style="stop-color:#404041"/>
	</linearGradient>
	<rect x="886" y="-920.6" clip-path="url(#SVGID_5_)" fill="url(#SVGID_6_)" width="16.8" height="36.2"/>
</g>
<rect x="921.3" y="-761.4" fill="#1C75BC" width="15.8" height="34.3"/>
<g>
	<defs>
		<polygon id="SVGID_7_" points="867.5,-727.1 867.5,-850.2 921.3,-850.2 921.3,-815.4 937,-815.4 937,-920.6 921.3,-920.6 
			921.3,-865.9 867.5,-865.9 867.5,-920.6 851.2,-920.6 851.2,-727.1 		"/>
	</defs>
	<clipPath id="SVGID_8_">
		<use xlink:href="#SVGID_7_"  overflow="visible"/>
	</clipPath>
	
		<linearGradient id="SVGID_9_" gradientUnits="userSpaceOnUse" x1="393.5294" y1="-505.5882" x2="394.5294" y2="-505.5882" gradientTransform="matrix(0 210.9775 210.9775 0 107561.8828 -83957.8906)">
		<stop  offset="0" style="stop-color:#898B8D"/>
		<stop  offset="1" style="stop-color:#404041"/>
	</linearGradient>
	<rect x="851.2" y="-920.6" clip-path="url(#SVGID_8_)" fill="url(#SVGID_9_)" width="85.8" height="193.5"/>
</g>
<rect x="990.3" y="-920.6" fill="#1C75BC" width="18" height="193.5"/>
<g>
	<defs>
		<rect id="SVGID_10_" x="814.8" y="-920.6" width="18" height="193.5"/>
	</defs>
	<clipPath id="SVGID_11_">
		<use xlink:href="#SVGID_10_"  overflow="visible"/>
	</clipPath>
	
		<linearGradient id="SVGID_12_" gradientUnits="userSpaceOnUse" x1="393.5294" y1="-505.5882" x2="394.5294" y2="-505.5882" gradientTransform="matrix(0 210.9775 210.9775 0 107491.5078 -83957.8906)">
		<stop  offset="0" style="stop-color:#898B8D"/>
		<stop  offset="1" style="stop-color:#404041"/>
	</linearGradient>
	<rect x="814.8" y="-920.6" clip-path="url(#SVGID_11_)" fill="url(#SVGID_12_)" width="18" height="193.5"/>
</g>
<polygon fill="#1C75BC" points="189.7,-377.5 189.7,-227.9 125.9,-227.9 125.9,-269.9 105.5,-269.9 105.5,-143.3 125.9,-143.3 
	125.9,-207.2 189.7,-207.2 189.7,-165.2 209.4,-165.2 209.4,-377.5 "/>
<g>
	<defs>
		<rect id="SVGID_13_" x="105.5" y="-377.5" width="20.3" height="43.8"/>
	</defs>
	<clipPath id="SVGID_14_">
		<use xlink:href="#SVGID_13_"  overflow="visible"/>
	</clipPath>
	
		<linearGradient id="SVGID_15_" gradientUnits="userSpaceOnUse" x1="396.0919" y1="-509.279" x2="397.3023" y2="-509.279" gradientTransform="matrix(0 210.9818 210.9818 0 107564.2969 -83959.5625)">
		<stop  offset="0" style="stop-color:#898B8D"/>
		<stop  offset="1" style="stop-color:#404041"/>
	</linearGradient>
	<rect x="105.5" y="-377.5" clip-path="url(#SVGID_14_)" fill="url(#SVGID_15_)" width="20.3" height="43.8"/>
</g>
<rect x="148.3" y="-184.8" fill="#1C75BC" width="19.1" height="41.5"/>
<g>
	<defs>
		<polygon id="SVGID_16_" points="83.2,-143.3 83.2,-292.3 148.3,-292.3 148.3,-250.2 167.3,-250.2 167.3,-377.5 148.3,-377.5 
			148.3,-311.4 83.2,-311.4 83.2,-377.5 63.5,-377.5 63.5,-143.3 		"/>
	</defs>
	<clipPath id="SVGID_17_">
		<use xlink:href="#SVGID_16_"  overflow="visible"/>
	</clipPath>
	
		<linearGradient id="SVGID_18_" gradientUnits="userSpaceOnUse" x1="396.092" y1="-509.2794" x2="397.3024" y2="-509.2794" gradientTransform="matrix(0 210.9775 210.9775 0 107561.8828 -83957.8906)">
		<stop  offset="0" style="stop-color:#898B8D"/>
		<stop  offset="1" style="stop-color:#404041"/>
	</linearGradient>
	<rect x="63.5" y="-377.5" clip-path="url(#SVGID_17_)" fill="url(#SVGID_18_)" width="103.9" height="234.2"/>
</g>
<rect x="231.8" y="-377.5" fill="#1C75BC" width="21.8" height="234.2"/>
<g>
	<defs>
		<rect id="SVGID_19_" x="19.3" y="-377.5" width="21.8" height="234.2"/>
	</defs>
	<clipPath id="SVGID_20_">
		<use xlink:href="#SVGID_19_"  overflow="visible"/>
	</clipPath>
	
		<linearGradient id="SVGID_21_" gradientUnits="userSpaceOnUse" x1="396.092" y1="-509.3495" x2="397.3024" y2="-509.3495" gradientTransform="matrix(0 210.9775 210.9775 0 107491.5078 -83957.8906)">
		<stop  offset="0" style="stop-color:#898B8D"/>
		<stop  offset="1" style="stop-color:#404041"/>
	</linearGradient>
	<rect x="19.3" y="-377.5" clip-path="url(#SVGID_20_)" fill="url(#SVGID_21_)" width="21.8" height="234.2"/>
</g>
<polygon fill="#1C75BC" points="201.5,26.2 201.5,175.9 137.7,175.9 137.7,133.8 117.4,133.8 117.4,260.4 137.7,260.4 137.7,196.6 
	201.5,196.6 201.5,238.5 221.2,238.5 221.2,26.2 "/>
<g>
	<defs>
		<rect id="SVGID_22_" x="117.4" y="26.2" width="20.3" height="43.8"/>
	</defs>
	<clipPath id="SVGID_23_">
		<use xlink:href="#SVGID_22_"  overflow="visible"/>
	</clipPath>
	
		<linearGradient id="SVGID_24_" gradientUnits="userSpaceOnUse" x1="398.0057" y1="-509.223" x2="399.2161" y2="-509.223" gradientTransform="matrix(0 210.9818 210.9818 0 107564.2969 -83959.5625)">
		<stop  offset="0" style="stop-color:#898B8D"/>
		<stop  offset="1" style="stop-color:#404041"/>
	</linearGradient>
	<rect x="117.4" y="26.2" clip-path="url(#SVGID_23_)" fill="url(#SVGID_24_)" width="20.3" height="43.8"/>
</g>
<rect x="160.1" y="219" fill="#1C75BC" width="19.1" height="41.5"/>
<g>
	<defs>
		<polygon id="SVGID_25_" points="95,260.4 95,111.4 160.1,111.4 160.1,153.5 179.1,153.5 179.1,26.2 160.1,26.2 160.1,92.4 
			95,92.4 95,26.2 75.3,26.2 75.3,260.4 		"/>
	</defs>
	<clipPath id="SVGID_26_">
		<use xlink:href="#SVGID_25_"  overflow="visible"/>
	</clipPath>
	
		<linearGradient id="SVGID_27_" gradientUnits="userSpaceOnUse" x1="398.0058" y1="-509.2233" x2="399.2162" y2="-509.2233" gradientTransform="matrix(0 210.9775 210.9775 0 107561.8828 -83957.8906)">
		<stop  offset="0" style="stop-color:#898B8D"/>
		<stop  offset="1" style="stop-color:#404041"/>
	</linearGradient>
	<rect x="75.3" y="26.2" clip-path="url(#SVGID_26_)" fill="url(#SVGID_27_)" width="103.9" height="234.2"/>
</g>
<rect x="243.6" y="26.2" fill="#1C75BC" width="21.8" height="234.2"/>
<g>
	<defs>
		<rect id="SVGID_28_" x="31.2" y="26.2" width="21.8" height="234.2"/>
	</defs>
	<clipPath id="SVGID_29_">
		<use xlink:href="#SVGID_28_"  overflow="visible"/>
	</clipPath>
	
		<linearGradient id="SVGID_30_" gradientUnits="userSpaceOnUse" x1="398.0058" y1="-509.2935" x2="399.2162" y2="-509.2935" gradientTransform="matrix(0 210.9775 210.9775 0 107491.5078 -83957.8906)">
		<stop  offset="0" style="stop-color:#898B8D"/>
		<stop  offset="1" style="stop-color:#404041"/>
	</linearGradient>
	<rect x="31.2" y="26.2" clip-path="url(#SVGID_29_)" fill="url(#SVGID_30_)" width="21.8" height="234.2"/>
</g>
</svg>
