<?xml version="1.0" encoding="utf-8"?>
<!-- Generator: Adobe Illustrator 23.0.1, SVG Export Plug-In . SVG Version: 6.00 Build 0)  -->
<svg version="1.1" id="Layer_1" xmlns="http://www.w3.org/2000/svg" xmlns:xlink="http://www.w3.org/1999/xlink" x="0px" y="0px"
	 width="1920.7px" height="313.4px" viewBox="0 0 1920.7 313.4" enable-background="new 0 0 1920.7 313.4" xml:space="preserve">
<g>
	<defs>
		<rect id="SVGID_1_" x="430.8" y="-641.1" width="1036" height="554"/>
	</defs>
	<clipPath id="SVGID_2_">
		<use xlink:href="#SVGID_1_"  overflow="visible"/>
	</clipPath>
	
		<radialGradient id="SVGID_3_" cx="430.8237" cy="-87.1177" r="1" gradientTransform="matrix(478.5693 0 0 -304.3358 -205230.1406 -26877.1504)" gradientUnits="userSpaceOnUse">
		<stop  offset="0" style="stop-color:#F2F2F2"/>
		<stop  offset="1" style="stop-color:#B3B3B3"/>
	</radialGradient>
	<rect x="430.8" y="-641.1" clip-path="url(#SVGID_2_)" fill="url(#SVGID_3_)" width="1036" height="554"/>
</g>
<text transform="matrix(1 0 0 1 623.8813 -222.0913)"><tspan x="0" y="0" fill="#111111" font-family="'Exo2-Bold'" font-size="61.5542px">И</tspan><tspan x="43.9" y="0" fill="#111111" font-family="'Exo2-Bold'" font-size="61.5542px">А</tspan><tspan x="83.7" y="0" fill="#111111" font-family="'Exo2-Bold'" font-size="61.5542px">С НЕДВИЖИМОСТЬ</tspan></text>
<g>
	<path fill="#111111" d="M429.3,114.2v70.9h-15V143c0-1.6,0.1-3.2,0.2-4.8c0.1-1.6,0.3-3.2,0.6-4.8h-0.6c-0.5,1.6-1.2,3.2-1.8,4.8
		c-0.7,1.5-1.4,3.1-2.2,4.6l-24.4,42.3h-15.3v-70.9h15v41.3c0,1.6-0.1,3.2-0.3,4.9c-0.2,1.7-0.4,3.4-0.6,5.1h0.5
		c0.6-1.6,1.3-3.3,2-4.8c0.7-1.6,1.5-3.1,2.3-4.5l24.1-41.9H429.3z"/>
	<path fill="#111111" d="M477.7,114.2c1.3,0,2.4,0.4,3.4,1.1c1,0.8,1.7,1.7,2,3l20.6,66.8h-16L473.1,133c-0.3-1.2-0.5-2.3-0.8-3.5
		c-0.3-1.2-0.5-2.3-0.7-3.4h-2.8c-0.2,1.1-0.4,2.2-0.7,3.4c-0.2,1.2-0.5,2.4-0.9,3.5l-14.5,52.1h-16.1l20.7-66.8c0.3-1.2,1-2.2,2-3
		c1-0.8,2.1-1.1,3.4-1.1H477.7z M488.6,154.6v11.8h-36.8v-11.8H488.6z"/>
	<path fill="#111111" d="M537.9,113c3.4,0,6.2,0.1,8.6,0.3c2.4,0.2,4.5,0.4,6.5,0.8c2,0.3,4,0.8,6.2,1.4l-1.2,11.5
		c-2.3-0.1-4.3-0.2-6.2-0.3c-1.9-0.1-3.9-0.1-6.1-0.2c-2.2,0-4.7-0.1-7.8-0.1c-3.5,0-6.2,0.7-8.2,2.1c-2,1.4-3.3,3.8-4.2,7.1
		c-0.8,3.4-1.2,8.1-1.2,14c0,6,0.4,10.6,1.2,14c0.8,3.4,2.2,5.8,4.2,7.1c2,1.4,4.7,2.1,8.2,2.1c4.7,0,8.7-0.1,11.9-0.2
		c3.2-0.1,6.4-0.4,9.6-0.7l1.3,11.5c-3.3,1-6.6,1.8-10.1,2.2c-3.4,0.4-7.7,0.7-12.7,0.7c-7.3,0-13.2-1.2-17.6-3.5
		c-4.4-2.4-7.6-6.2-9.6-11.6c-2-5.3-2.9-12.5-2.9-21.6c0-9,1-16.2,2.9-21.6c2-5.3,5.1-9.2,9.6-11.6C524.7,114.2,530.5,113,537.9,113
		z"/>
	<path fill="#111111" d="M608.8,114.2v70.9h-15.7v-70.9H608.8z M635.1,141.4v11.8H608v-11.8H635.1z M649.7,114.2v70.9H634v-70.9
		H649.7z"/>
	<path fill="#111111" d="M678.9,113.9c3.8,0,7.6,0,11.5,0.1c3.9,0,7.8,0.1,11.6,0.3c3.8,0.1,7.3,0.4,10.6,0.7l-0.7,11.4h-27.2
		c-1.7,0-3,0.4-3.9,1.3c-0.9,0.9-1.3,2.2-1.3,3.9v36.2c0,1.7,0.4,3,1.3,3.9c0.9,0.9,2.1,1.3,3.9,1.3h27.2l0.7,11.4
		c-3.3,0.3-6.8,0.5-10.6,0.7c-3.8,0.2-7.7,0.3-11.6,0.3c-3.9,0-7.7,0.1-11.5,0.1c-4.5,0-8.2-1.3-10.9-4c-2.8-2.6-4.2-6.1-4.2-10.3
		v-43c0-4.3,1.4-7.8,4.2-10.4C670.7,115.2,674.3,113.9,678.9,113.9z M665.5,142.7h42.4v11.1h-42.4V142.7z"/>
	<path fill="#111111" d="M790.1,174.1v11h-71.9v-11H790.1z M730.7,184.4l-1.2,16.2h-11.3v-16.2H730.7z M780.9,114.2v70.9h-15.7
		v-59.9h-9.4c-2,0-3.5,0.5-4.4,1.4c-1,1-1.5,2.5-1.6,4.6c-0.4,5.1-0.9,9.8-1.4,14c-0.5,4.2-1.2,8-2,11.6c-0.8,3.5-1.7,6.9-2.9,10
		c-1.1,3.1-2.5,6.2-4.1,9.1c-1.6,3-3.4,6-5.5,9.2h-13.3c3.3-6,5.9-12,7.8-18.2c1.9-6.2,3.4-12.5,4.4-18.9c1-6.4,1.8-12.8,2.3-19.3
		c0.3-4.3,1.9-7.8,4.8-10.5c2.8-2.7,6.6-4,11.3-4H780.9z M790.1,184.4v16.2h-11.2l-1.2-16.2H790.1z"/>
	<path fill="#111111" d="M826.6,113.4c6.2,0,11.1,0.5,14.7,1.6c3.7,1.1,6.3,2.9,8,5.6c1.6,2.7,2.5,6.4,2.5,11.3
		c0,5.1-1,8.9-2.9,11.6c-2,2.6-5.2,4.2-9.6,4.6v0.6c5.5,0.5,9.3,2.3,11.5,5.5c2.2,3.2,3.3,7.6,3.3,13.3c0,4.9-0.8,8.6-2.5,11.3
		c-1.7,2.7-4.3,4.5-7.8,5.6c-3.5,1.1-8.1,1.6-13.8,1.6c-4.6,0-8.6,0-12-0.1c-3.4,0-6.5-0.1-9.4-0.3c-2.9-0.1-5.8-0.3-8.8-0.5
		l1.5-10.9c1.6,0.1,4.8,0.1,9.5,0.2c4.7,0.1,10.2,0.1,16.4,0.1c2.9,0,5.1-0.3,6.8-0.8c1.6-0.5,2.8-1.6,3.4-3c0.6-1.5,1-3.6,1-6.3
		c0-2.9-0.3-5.2-1-6.7c-0.7-1.5-1.9-2.6-3.5-3.2c-1.7-0.6-4-1-6.9-1h-25.7v-10h25.5c2.5-0.1,4.5-0.3,6-0.8c1.5-0.5,2.5-1.4,3.1-2.8
		c0.6-1.4,0.9-3.3,0.9-5.8c0-2.5-0.3-4.5-1-5.8c-0.7-1.3-1.8-2.2-3.3-2.7c-1.6-0.5-3.8-0.7-6.6-0.7c-3.8,0-7.2,0-10.2,0
		c-2.9,0-5.6,0-7.9,0.1c-2.3,0-4.5,0.1-6.5,0.3l-1.5-10.9c2.7-0.3,5.4-0.5,8-0.6c2.6-0.1,5.4-0.2,8.4-0.2
		C819,113.4,822.6,113.4,826.6,113.4z M815.1,114.2v70.9h-15.4v-70.9H815.1z"/>
	<path fill="#111111" d="M924.2,114.2v70.9h-15V143c0-1.6,0.1-3.2,0.2-4.8c0.1-1.6,0.3-3.2,0.6-4.8h-0.6c-0.5,1.6-1.2,3.2-1.8,4.8
		c-0.7,1.5-1.4,3.1-2.2,4.6l-24.4,42.3h-15.3v-70.9h15v41.3c0,1.6-0.1,3.2-0.3,4.9c-0.2,1.7-0.4,3.4-0.6,5.1h0.5
		c0.6-1.6,1.3-3.3,2-4.8c0.7-1.6,1.5-3.1,2.3-4.5l24.1-41.9H924.2z"/>
	<path fill="#111111" d="M951.5,114.2c1.6,5,3,9.3,4.2,12.9c1.2,3.6,2.4,6.5,3.5,8.8c1.2,2.3,2.5,4,4,5.1c1.5,1.1,3.2,1.7,5.3,1.7
		v10.9c-2.2,0-4,0.5-5.5,1.5c-1.5,1-2.8,2.7-4,5.1c-1.2,2.4-2.5,5.6-3.9,9.6c-1.4,4-3,9.1-5,15.2h-16.4c1.6-5.3,3.1-10,4.3-13.9
		c1.2-3.9,2.4-7.3,3.6-10.1c1.2-2.8,2.5-5,4-6.8c1.4-1.7,3.1-3.1,5-4c1.9-0.9,4.3-1.6,7.1-1.9v-0.6c-2.7-0.3-4.9-1-6.8-1.9
		c-1.8-0.9-3.4-2.2-4.7-4c-1.3-1.7-2.5-3.9-3.5-6.4c-1.1-2.6-2.1-5.6-3.2-9.1c-1.1-3.5-2.4-7.6-3.8-12.2H951.5z M975.9,142.8v10.9
		h-10.5v-10.9H975.9z M987.4,114.2v20c0,2.3-0.2,4.6-0.5,6.9c-0.3,2.3-0.9,4.5-1.7,6.7c0.6,2.1,1.1,4.3,1.6,6.5
		c0.4,2.2,0.7,4.3,0.7,6.2v24.5h-15v-24.5c0-1.9,0.2-4,0.7-6.2c0.5-2.2,1-4.4,1.5-6.5c-0.8-2.2-1.3-4.4-1.7-6.7
		c-0.4-2.3-0.6-4.6-0.6-6.9v-20H987.4z M994.3,142.8v10.9H984v-10.9H994.3z M1024.1,114.2c-1.4,4.7-2.7,8.7-3.8,12.2
		c-1.1,3.5-2.2,6.5-3.2,9.1c-1.1,2.6-2.3,4.7-3.6,6.4c-1.3,1.7-2.9,3-4.8,4c-1.8,0.9-4.1,1.6-6.8,1.9v0.6c2.8,0.3,5.2,1,7.1,1.9
		s3.6,2.3,5.1,4c1.4,1.7,2.8,4,4,6.8c1.2,2.8,2.4,6.1,3.6,10.1c1.2,3.9,2.7,8.6,4.3,13.9h-16.4c-2-6.1-3.7-11.2-5-15.2
		c-1.4-4-2.7-7.2-3.9-9.6c-1.2-2.4-2.5-4.1-4-5.1c-1.5-1-3.3-1.5-5.5-1.5l-0.1-10.9c2.1,0,3.9-0.6,5.3-1.7c1.4-1.1,2.7-2.8,3.9-5.1
		c1.2-2.3,2.4-5.2,3.6-8.8c1.2-3.6,2.6-7.9,4.2-12.9H1024.1z"/>
	<path fill="#111111" d="M1093.9,114.2v70.9h-15V143c0-1.6,0.1-3.2,0.2-4.8c0.1-1.6,0.3-3.2,0.6-4.8h-0.6c-0.5,1.6-1.2,3.2-1.8,4.8
		c-0.7,1.5-1.4,3.1-2.2,4.6l-24.4,42.3h-15.3v-70.9h15v41.3c0,1.6-0.1,3.2-0.3,4.9c-0.2,1.7-0.4,3.4-0.6,5.1h0.5
		c0.6-1.6,1.3-3.3,2-4.8c0.7-1.6,1.5-3.1,2.3-4.5l24.1-41.9H1093.9z"/>
	<path fill="#111111" d="M1181.2,114.2c3.7,0,5.6,1.9,5.8,5.8l2.7,65.1h-14.5l-2.4-58.8h-1.8l-11.4,44.2c-0.6,3.3-2.7,4.9-6.2,4.9
		h-9.9c-3.5,0-5.6-1.6-6.4-4.9l-11.4-44.2h-1.7l-2.2,58.8h-14.6l2.7-65.1c0.1-3.8,2.1-5.8,5.9-5.8h14.7c3.4,0,5.4,1.7,6.2,5
		l9.1,35.7c0.4,1.6,0.8,3.3,1,5c0.3,1.7,0.6,3.4,0.9,5.1h1.3c0.3-1.7,0.7-3.4,1-5.1c0.3-1.7,0.6-3.4,1-5.1l9-35.6
		c0.7-3.4,2.7-5,6.2-5H1181.2z"/>
	<path fill="#111111" d="M1231.1,112.8c5.6,0,10.4,0.6,14.3,1.8c3.9,1.2,7,3.2,9.4,6c2.4,2.8,4.1,6.5,5.2,11.3
		c1.1,4.8,1.6,10.7,1.6,17.8c0,7.1-0.5,13.1-1.6,17.8c-1.1,4.8-2.8,8.5-5.2,11.3c-2.4,2.8-5.5,4.8-9.4,6c-3.9,1.2-8.7,1.8-14.3,1.8
		c-5.6,0-10.4-0.6-14.3-1.8c-3.9-1.2-7.1-3.2-9.5-6c-2.4-2.8-4.1-6.5-5.2-11.3c-1.1-4.8-1.6-10.7-1.6-17.8c0-7.1,0.5-13.1,1.6-17.8
		c1.1-4.8,2.8-8.5,5.2-11.3c2.4-2.8,5.5-4.8,9.5-6C1220.7,113.4,1225.4,112.8,1231.1,112.8z M1231.1,125.2c-3.6,0-6.5,0.7-8.5,2.2
		c-2,1.4-3.5,3.9-4.3,7.4c-0.9,3.5-1.3,8.5-1.3,14.8c0,6.3,0.4,11.2,1.3,14.8c0.9,3.6,2.3,6.1,4.3,7.5c2,1.4,4.8,2.2,8.5,2.2
		c3.6,0,6.4-0.7,8.4-2.2c2-1.4,3.5-3.9,4.3-7.5c0.9-3.6,1.3-8.5,1.3-14.8c0-6.4-0.4-11.3-1.3-14.8c-0.9-3.5-2.3-6-4.3-7.4
		C1237.4,125.9,1234.6,125.2,1231.1,125.2z"/>
	<path fill="#111111" d="M1301.2,113c3.4,0,6.2,0.1,8.6,0.3c2.4,0.2,4.5,0.4,6.5,0.8c2,0.3,4,0.8,6.2,1.4l-1.2,11.5
		c-2.3-0.1-4.3-0.2-6.2-0.3c-1.9-0.1-3.9-0.1-6.1-0.2c-2.2,0-4.7-0.1-7.8-0.1c-3.5,0-6.2,0.7-8.2,2.1c-2,1.4-3.3,3.8-4.2,7.1
		c-0.8,3.4-1.2,8.1-1.2,14c0,6,0.4,10.6,1.2,14c0.8,3.4,2.2,5.8,4.2,7.1c2,1.4,4.7,2.1,8.2,2.1c4.7,0,8.7-0.1,11.9-0.2
		c3.2-0.1,6.4-0.4,9.6-0.7l1.3,11.5c-3.3,1-6.6,1.8-10.1,2.2c-3.4,0.4-7.7,0.7-12.7,0.7c-7.3,0-13.2-1.2-17.6-3.5
		c-4.4-2.4-7.6-6.2-9.6-11.6c-2-5.3-2.9-12.5-2.9-21.6c0-9,1-16.2,2.9-21.6c2-5.3,5.1-9.2,9.6-11.6
		C1288,114.2,1293.9,113,1301.2,113z"/>
	<path fill="#111111" d="M1386.9,114.2v12.3h-58.4v-12.3H1386.9z M1365.6,114.2v70.9h-15.7v-70.9H1365.6z"/>
	<path fill="#111111" d="M1411.8,114.2v70.9h-15.7v-70.9H1411.8z M1422.4,140.6c6.5,0,11.7,0.7,15.5,2.1c3.8,1.4,6.5,3.8,8.1,7
		c1.6,3.3,2.4,7.8,2.4,13.6c0,5.9-0.8,10.5-2.4,13.8c-1.6,3.3-4.1,5.6-7.6,6.9c-3.4,1.3-7.9,2-13.4,2c-4.3,0-8.1,0-11.3-0.1
		c-3.2,0-6.2-0.1-8.9-0.3c-2.7-0.1-5.5-0.3-8.4-0.5l1.4-11.2c1.6,0.1,4.6,0.1,9,0.2c4.3,0.1,9.5,0.1,15.5,0.1c2.7,0,4.8-0.3,6.3-0.9
		c1.5-0.6,2.5-1.7,3.1-3.4c0.6-1.7,0.9-4,0.9-7c0-3-0.3-5.4-0.8-7c-0.5-1.7-1.6-2.9-3-3.6c-1.5-0.7-3.6-1.1-6.4-1.1h-24.6v-10.6
		H1422.4z"/>
</g>
<polygon fill="#1C75BC" points="992.8,-502.1 992.8,-378.5 940.1,-378.5 940.1,-413.2 923.3,-413.2 923.3,-308.6 940.1,-308.6 
	940.1,-361.4 992.8,-361.4 992.8,-326.7 1009.1,-326.7 1009.1,-502.1 "/>
<g>
	<defs>
		<rect id="SVGID_4_" x="923.3" y="-502.1" width="16.8" height="36.2"/>
	</defs>
	<clipPath id="SVGID_5_">
		<use xlink:href="#SVGID_4_"  overflow="visible"/>
	</clipPath>
	
		<linearGradient id="SVGID_6_" gradientUnits="userSpaceOnUse" x1="430.8237" y1="-87.1177" x2="431.8237" y2="-87.1177" gradientTransform="matrix(0 210.9818 210.9818 0 19311.9434 -91409.5)">
		<stop  offset="0" style="stop-color:#898B8D"/>
		<stop  offset="1" style="stop-color:#404041"/>
	</linearGradient>
	<rect x="923.3" y="-502.1" clip-path="url(#SVGID_5_)" fill="url(#SVGID_6_)" width="16.8" height="36.2"/>
</g>
<rect x="958.6" y="-342.9" fill="#1C75BC" width="15.8" height="34.3"/>
<g>
	<defs>
		<polygon id="SVGID_7_" points="904.8,-308.6 904.8,-431.7 958.6,-431.7 958.6,-397 974.3,-397 974.3,-502.1 958.6,-502.1 
			958.6,-447.5 904.8,-447.5 904.8,-502.1 888.5,-502.1 888.5,-308.6 		"/>
	</defs>
	<clipPath id="SVGID_8_">
		<use xlink:href="#SVGID_7_"  overflow="visible"/>
	</clipPath>
	
		<linearGradient id="SVGID_9_" gradientUnits="userSpaceOnUse" x1="430.8237" y1="-87.1177" x2="431.8237" y2="-87.1177" gradientTransform="matrix(0 210.9775 210.9775 0 19311.3066 -91407.6641)">
		<stop  offset="0" style="stop-color:#898B8D"/>
		<stop  offset="1" style="stop-color:#404041"/>
	</linearGradient>
	<rect x="888.5" y="-502.1" clip-path="url(#SVGID_8_)" fill="url(#SVGID_9_)" width="85.8" height="193.5"/>
</g>
<rect x="1027.6" y="-502.1" fill="#1C75BC" width="18" height="193.5"/>
<g>
	<defs>
		<rect id="SVGID_10_" x="852.1" y="-502.1" width="18" height="193.5"/>
	</defs>
	<clipPath id="SVGID_11_">
		<use xlink:href="#SVGID_10_"  overflow="visible"/>
	</clipPath>
	
		<linearGradient id="SVGID_12_" gradientUnits="userSpaceOnUse" x1="430.8237" y1="-87.1177" x2="431.8237" y2="-87.1177" gradientTransform="matrix(0 210.9775 210.9775 0 19240.9375 -91407.6641)">
		<stop  offset="0" style="stop-color:#898B8D"/>
		<stop  offset="1" style="stop-color:#404041"/>
	</linearGradient>
	<rect x="852.1" y="-502.1" clip-path="url(#SVGID_11_)" fill="url(#SVGID_12_)" width="18" height="193.5"/>
</g>
<polygon fill="#1C75BC" points="227,40.9 227,190.6 163.2,190.6 163.2,148.5 142.8,148.5 142.8,275.1 163.2,275.1 163.2,211.3 
	227,211.3 227,253.2 246.7,253.2 246.7,40.9 "/>
<g>
	<defs>
		<rect id="SVGID_13_" x="142.8" y="40.9" width="20.3" height="43.8"/>
	</defs>
	<clipPath id="SVGID_14_">
		<use xlink:href="#SVGID_13_"  overflow="visible"/>
	</clipPath>
	
		<linearGradient id="SVGID_15_" gradientUnits="userSpaceOnUse" x1="433.3862" y1="-90.8085" x2="434.5966" y2="-90.8085" gradientTransform="matrix(0 210.9818 210.9818 0 19311.9434 -91409.5)">
		<stop  offset="0" style="stop-color:#898B8D"/>
		<stop  offset="1" style="stop-color:#404041"/>
	</linearGradient>
	<rect x="142.8" y="40.9" clip-path="url(#SVGID_14_)" fill="url(#SVGID_15_)" width="20.3" height="43.8"/>
</g>
<rect x="185.6" y="233.7" fill="#1C75BC" width="19.1" height="41.5"/>
<g>
	<defs>
		<polygon id="SVGID_16_" points="120.5,275.1 120.5,126.2 185.6,126.2 185.6,168.2 204.6,168.2 204.6,40.9 185.6,40.9 185.6,107.1 
			120.5,107.1 120.5,40.9 100.8,40.9 100.8,275.1 		"/>
	</defs>
	<clipPath id="SVGID_17_">
		<use xlink:href="#SVGID_16_"  overflow="visible"/>
	</clipPath>
	
		<linearGradient id="SVGID_18_" gradientUnits="userSpaceOnUse" x1="433.3863" y1="-90.8088" x2="434.5966" y2="-90.8088" gradientTransform="matrix(0 210.9775 210.9775 0 19311.3066 -91407.6641)">
		<stop  offset="0" style="stop-color:#898B8D"/>
		<stop  offset="1" style="stop-color:#404041"/>
	</linearGradient>
	<rect x="100.8" y="40.9" clip-path="url(#SVGID_17_)" fill="url(#SVGID_18_)" width="103.9" height="234.2"/>
</g>
<rect x="269.1" y="40.9" fill="#1C75BC" width="21.8" height="234.2"/>
<g>
	<defs>
		<rect id="SVGID_19_" x="56.6" y="40.9" width="21.8" height="234.2"/>
	</defs>
	<clipPath id="SVGID_20_">
		<use xlink:href="#SVGID_19_"  overflow="visible"/>
	</clipPath>
	
		<linearGradient id="SVGID_21_" gradientUnits="userSpaceOnUse" x1="433.3863" y1="-90.879" x2="434.5966" y2="-90.879" gradientTransform="matrix(0 210.9775 210.9775 0 19240.9375 -91407.6641)">
		<stop  offset="0" style="stop-color:#898B8D"/>
		<stop  offset="1" style="stop-color:#404041"/>
	</linearGradient>
	<rect x="56.6" y="40.9" clip-path="url(#SVGID_20_)" fill="url(#SVGID_21_)" width="21.8" height="234.2"/>
</g>
</svg>
